<svg width="49" height="92" viewBox="0 0 49 92" fill="none" xmlns="http://www.w3.org/2000/svg">
<g clip-path="url(#clip0_117_661)">
<path fill-rule="evenodd" clip-rule="evenodd" d="M0 26.5385C0 37.9864 16.099 58.6968 24.3996 69C31.8634 60.4314 49 40.3801 49 26.5385C49 3.85069 33.4365 0 24.3996 0C14.2562 0 0 2.91402 0 26.5385ZM13.1537 17.3801V38.7149H20.7848V34.6561H28.0144V38.7149H35.7459V30.7014H29.1189V24.2489H35.7459V17.3801H28.0144V10.5113H20.7848V17.3801H13.1537Z" fill="#20938D"/>
<path d="M24.816 91.024C21.9147 91.024 19.44 90.2987 17.392 88.848C15.344 87.312 14.32 84.624 14.32 80.784C14.32 76.8587 15.344 74.1707 17.392 72.72C19.44 71.2693 21.9147 70.544 24.816 70.544C27.632 70.544 30.064 71.2693 32.112 72.72C34.2453 74.1707 35.312 76.8587 35.312 80.784C35.312 84.624 34.2453 87.312 32.112 88.848C30.064 90.2987 27.632 91.024 24.816 91.024Z" fill="#20938D"/>
</g>
<defs>
<clipPath id="clip0_117_661">
<rect width="49" height="92" fill="white"/>
</clipPath>
</defs>
</svg>
